<svg width="75" height="15" viewBox="0 0 75 15" fill="none" xmlns="http://www.w3.org/2000/svg">
<path d="M58.0181 11.4097H59.6469V0.398144H58.0181V11.4097ZM72.6888 4.36461L70.8217 9.13882H70.7658L68.828 4.36461H67.0735L69.9793 11.0371L68.3234 14.749H70.0212L74.5 4.36461H72.6888ZM63.4519 10.1588C62.9176 10.1588 62.1739 9.89019 62.1739 9.22338C62.1739 8.37424 63.1001 8.04833 63.9005 8.04833C64.6163 8.04833 64.9541 8.20424 65.3888 8.41652C65.2622 9.43655 64.392 10.1588 63.4519 10.1588ZM63.6483 4.12414C62.469 4.12414 61.2469 4.64825 60.7424 5.81009L62.1879 6.41876C62.4969 5.81009 63.0721 5.61102 63.6762 5.61102C64.5185 5.61102 65.3748 6.12103 65.3888 7.0283V7.14105C65.0938 6.97105 64.4627 6.71648 63.6902 6.71648C62.132 6.71648 60.5451 7.5806 60.5451 9.1952C60.5451 10.6689 61.823 11.6184 63.2546 11.6184C64.3501 11.6184 64.9541 11.1225 65.3329 10.5411H65.3888V11.3912H66.9609V7.16924C66.9609 5.21463 65.5154 4.12414 63.6483 4.12414ZM53.5821 5.70527H51.2655V1.93082H53.5821C54.7998 1.93082 55.4911 2.9482 55.4911 3.81761C55.4911 4.67115 54.7998 5.70527 53.5821 5.70527ZM53.5402 0.398144H49.6375V11.4097H51.2655V7.23795H53.5402C55.3453 7.23795 57.1199 5.91843 57.1199 3.81761C57.1199 1.71678 55.3453 0.398144 53.5402 0.398144ZM32.2583 10.1606C31.1332 10.1606 30.1913 9.21017 30.1913 7.90475C30.1913 6.58524 31.1332 5.61982 32.2583 5.61982C33.3695 5.61982 34.2406 6.58524 34.2406 7.90475C34.2406 9.21017 33.3695 10.1606 32.2583 10.1606ZM34.1289 4.98121H34.0722C33.7064 4.54166 33.0038 4.1444 32.1178 4.1444C30.2611 4.1444 28.5599 5.78983 28.5599 7.90475C28.5599 10.0047 30.2611 11.6369 32.1178 11.6369C33.0038 11.6369 33.7064 11.2396 34.0722 10.7851H34.1289V11.3251C34.1289 12.7582 33.3695 13.5246 32.1457 13.5246C31.1471 13.5246 30.5282 12.8005 30.2751 12.1901L28.8549 12.7864C29.2626 13.78 30.3458 15 32.1457 15C34.0582 15 35.6757 13.8646 35.6757 11.0978V4.37078H34.1289V4.98121ZM36.8008 11.4097H38.4323V0.397264H36.8008V11.4097ZM40.8362 7.77703C40.7943 6.32979 41.9474 5.59164 42.7766 5.59164C43.4243 5.59164 43.9725 5.91755 44.1549 6.38616L40.8362 7.77703ZM45.8989 6.52798C45.5899 5.69117 44.6472 4.1444 42.7208 4.1444C40.8083 4.1444 39.2196 5.6621 39.2196 7.89066C39.2196 9.9906 40.7943 11.6369 42.9032 11.6369C44.6053 11.6369 45.5899 10.5869 45.9976 9.97651L44.7319 9.12473C44.3103 9.74925 43.7333 10.1606 42.9032 10.1606C42.0739 10.1606 41.483 9.77744 41.1033 9.02607L46.0674 6.95343L45.8989 6.52798ZM6.3501 5.29391V6.88296H10.1184C10.0058 7.77703 9.71072 8.42974 9.26118 8.88337C8.71214 9.43743 7.85409 10.0479 6.3501 10.0479C4.02909 10.0479 2.21523 8.1602 2.21523 5.8189C2.21523 3.47672 4.02909 1.58993 6.3501 1.58993C7.60182 1.58993 8.51574 2.08673 9.19048 2.72535L10.3017 1.60403C9.35895 0.69587 8.1081 0 6.3501 0C3.17191 0 0.5 2.61172 0.5 5.8189C0.5 9.02607 3.17191 11.6369 6.3501 11.6369C8.06533 11.6369 9.35895 11.0688 10.3715 10.0047C11.4129 8.95472 11.7358 7.4793 11.7358 6.28663C11.7358 5.91755 11.7079 5.57754 11.6512 5.29391H6.3501ZM16.0208 10.1606C14.8957 10.1606 13.925 9.22426 13.925 7.89066C13.925 6.54207 14.8957 5.61982 16.0208 5.61982C17.1451 5.61982 18.1158 6.54207 18.1158 7.89066C18.1158 9.22426 17.1451 10.1606 16.0208 10.1606ZM16.0208 4.1444C13.9669 4.1444 12.2936 5.71936 12.2936 7.89066C12.2936 10.0479 13.9669 11.6369 16.0208 11.6369C18.0739 11.6369 19.7472 10.0479 19.7472 7.89066C19.7472 5.71936 18.0739 4.1444 16.0208 4.1444ZM24.15 10.1606C23.0249 10.1606 22.0542 9.22426 22.0542 7.89066C22.0542 6.54207 23.0249 5.61982 24.15 5.61982C25.2752 5.61982 26.245 6.54207 26.245 7.89066C26.245 9.22426 25.2752 10.1606 24.15 10.1606ZM24.15 4.1444C22.097 4.1444 20.4237 5.71936 20.4237 7.89066C20.4237 10.0479 22.097 11.6369 24.15 11.6369C26.2031 11.6369 27.8764 10.0479 27.8764 7.89066C27.8764 5.71936 26.2031 4.1444 24.15 4.1444Z" fill="white"/>
</svg>
